<?xml version="1.0" encoding="UTF-8"?>
<svg width="18px" height="18px" viewBox="0 0 18 18" version="1.1" xmlns="http://www.w3.org/2000/svg" xmlns:xlink="http://www.w3.org/1999/xlink">
    <title>brand / google</title>
    <defs>
        <rect id="path-1" x="0" y="0" width="24" height="24"></rect>
    </defs>
    <g id="Page-1" stroke="none" stroke-width="1" fill="none" fill-rule="evenodd">
        <g id="Custom-Preset" transform="translate(-170.000000, -3184.000000)">
            <g id="Footer" transform="translate(0.000000, 3095.000000)">
                <g id="Group-1" transform="translate(91.000000, 29.000000)">
                    <g id="Brands" transform="translate(0.000000, 57.000000)">
                        <g id="brand-/-google" transform="translate(76.000000, 0.000000)">
                            <mask id="mask-2" fill="white">
                                <use xlink:href="#path-1"></use>
                            </mask>
                            <g id="brand-/-google-(Background/Mask)"></g>
                            <path d="M11.9559727,10.3559971 L11.9559727,13.8069973 L16.7479715,13.8069973 C16.3019715,15.9999974 14.4349728,17.2599974 11.9559727,17.2599974 C9.03297257,17.2599974 6.67697263,14.9039967 6.67697263,11.9799967 C6.67697263,9.05699658 9.03297257,6.70099735 11.9559727,6.70099735 C13.2149726,6.70099735 14.3529726,7.14799732 15.2459726,7.87899733 L17.845973,5.27999735 C16.261973,3.89899731 14.2309728,3.04699707 11.9559727,3.04699707 C7.00197268,3.04699707 3.02197266,7.02599716 3.02197266,11.9809971 C3.02197266,16.935997 7.00097275,20.9149971 11.9559727,20.9149971 C16.4229727,20.9149971 20.4849739,17.665997 20.4849739,11.9809971 C20.4849739,11.4529971 20.4039742,10.8839971 20.2829742,10.3559971 L11.9559727,10.3559971 Z" fill="#3298DC" fill-rule="nonzero" mask="url(#mask-2)"></path>
                        </g>
                    </g>
                </g>
            </g>
        </g>
    </g>
</svg>