<svg id="Слой_1" data-name="Слой 1" xmlns="http://www.w3.org/2000/svg" viewBox="0 0 60 60"><defs><style>.cls-1{fill:none;stroke:#15173f;stroke-linecap:round;stroke-linejoin:round;stroke-width:1.15px;}</style></defs><title>baggage</title><polyline class="cls-1" points="30.78 33.49 24.64 36.16 27.18 42.5 36.41 38.77 35.4 36.33"/><rect class="cls-1" x="6.64" y="17.26" width="46.66" height="31.24" rx="2.33" ry="2.33"/><path class="cls-1" d="M25.47,11.18h9a2.33,2.33,0,0,1,2.33,2.33v3.75a0,0,0,0,1,0,0H23.13a0,0,0,0,1,0,0V13.51A2.33,2.33,0,0,1,25.47,11.18Z"/><line class="cls-1" x1="44.45" y1="48.5" x2="44.45" y2="17.26"/><line class="cls-1" x1="15.49" y1="17.26" x2="15.49" y2="48.5"/><rect class="cls-1" x="31.18" y="31.87" width="6.84" height="4.46"/></svg>