<svg id="Слой_1" data-name="Слой 1" xmlns="http://www.w3.org/2000/svg" viewBox="0 0 60 60"><defs><style>.cls-1{fill:none;stroke:#15173f;stroke-linecap:round;stroke-linejoin:round;stroke-width:1.15px;}</style></defs><title>barbeque</title><line class="cls-1" x1="38.33" y1="39.52" x2="41.64" y2="53.66"/><line class="cls-1" x1="15.7" y1="53.66" x2="19.54" y2="39.52"/><line class="cls-1" x1="43.94" y1="23.12" x2="13.94" y2="23.12"/><path class="cls-1" d="M44,27.67a15.08,15.08,0,1,1-30.16,0"/><line class="cls-1" x1="49.54" y1="27.67" x2="8.33" y2="27.67"/><line class="cls-1" x1="32.72" y1="36.59" x2="24.87" y2="36.59"/><path class="cls-1" d="M27.8,19.44c0-2.07,2-2.07,2-4.15s-2-2.07-2-4.15,2-2.07,2-4.15"/><path class="cls-1" d="M22.47,19.44c0-2.07,2-2.07,2-4.15s-2-2.07-2-4.15,2-2.07,2-4.15"/><path class="cls-1" d="M33.12,19.44c0-2.07,2-2.07,2-4.15s-2-2.07-2-4.15,2-2.07,2-4.15"/><line class="cls-1" x1="29.13" y1="42.97" x2="29.13" y2="54.63"/></svg>