<svg id="Слой_1" data-name="Слой 1" xmlns="http://www.w3.org/2000/svg" viewBox="0 0 60 60"><defs><style>.cls-1{fill:none;stroke:#15173f;stroke-linecap:round;stroke-linejoin:round;stroke-width:1.15px;}</style></defs><title>shopping</title><line class="cls-1" x1="25.92" y1="21.69" x2="25.79" y2="32.42"/><path class="cls-1" d="M33.56,21.69s-.33-9.53-7.83-9.53-7.42,9.53-7.42,9.53"/><path class="cls-1" d="M44.64,21.69H14.32l1.28,23.9a3.19,3.19,0,0,1-.06.82l-1,4.76a.89.89,0,0,0,.86,1.07h28a.89.89,0,0,0,.84-1.16l-1.41-4.5a3.18,3.18,0,0,1-.14-1.21Z"/><path class="cls-1" d="M20.9,21.69s-1.35-16.1,8.44-16.1h0c9.78,0,8.44,16.1,8.44,16.1"/><polyline class="cls-1" points="25.78 32.53 29.04 35.16 29.04 42.21 25.78 42.21"/><polyline class="cls-1" points="25.78 42.21 22.52 42.21 22.52 35.16 25.78 32.53"/></svg>