<svg id="Слой_1" data-name="Слой 1" xmlns="http://www.w3.org/2000/svg" viewBox="0 0 60 60"><defs><style>.cls-1{fill:none;stroke:#15173f;stroke-linecap:round;stroke-linejoin:round;stroke-width:1.15px;}</style></defs><title>train</title><line class="cls-1" x1="12.88" y1="37.97" x2="7.47" y2="37.97"/><line class="cls-1" x1="34.51" y1="37.97" x2="23.69" y2="37.97"/><path class="cls-1" d="M12,23.77H34.88a16.25,16.25,0,0,1,10,3.44l7.08,5.51A2.94,2.94,0,0,1,53.08,35h0A2.92,2.92,0,0,1,50.18,38H45.33"/><line class="cls-1" x1="38.84" y1="29.05" x2="36.75" y2="29.05"/><line class="cls-1" x1="32.87" y1="29.05" x2="30.78" y2="29.05"/><line class="cls-1" x1="26.9" y1="29.05" x2="24.81" y2="29.05"/><line class="cls-1" x1="20.93" y1="29.05" x2="18.84" y2="29.05"/><line class="cls-1" x1="14.96" y1="29.05" x2="12.88" y2="29.05"/><ellipse class="cls-1" cx="43.16" cy="38.15" rx="2.16" ry="2.19"/><ellipse class="cls-1" cx="36.67" cy="38.15" rx="2.16" ry="2.19"/><ellipse class="cls-1" cx="21.53" cy="38.15" rx="2.16" ry="2.19"/><ellipse class="cls-1" cx="15.04" cy="38.15" rx="2.16" ry="2.19"/><line class="cls-1" x1="16.69" y1="19.34" x2="11.49" y2="19.34"/><line class="cls-1" x1="8.43" y1="19.34" x2="7.82" y2="19.34"/><line class="cls-1" x1="47.44" y1="23.77" x2="46.14" y2="22.92"/><line class="cls-1" x1="54.12" y1="28.95" x2="49.75" y2="25.56"/></svg>