<?xml version="1.0" encoding="UTF-8"?>
<svg width="526px" height="13px" viewBox="0 0 526 13" version="1.1" xmlns="http://www.w3.org/2000/svg" xmlns:xlink="http://www.w3.org/1999/xlink">
    <title>g4257</title>
    <g id="Page-1" stroke="none" stroke-width="1" fill="none" fill-rule="evenodd">
        <g id="Custom-Preset" transform="translate(-366.000000, -720.000000)" fill="#DCDCDC" fill-rule="nonzero">
            <g id="Welcom-to-Azio-hotels" transform="translate(174.000000, 720.000000)">
                <g id="Heading-1" transform="translate(192.000000, 0.000000)">
                    <g id="g4257" transform="translate(263.000000, 6.500000) scale(1, -1) translate(-263.000000, -6.500000) ">
                        <path d="M231.754168,12 C241.435923,11.049893 239.731881,2.09306065 231.754168,1 C156.079609,6.08296432 78.3748442,4.4761217 0,6.69281812 C77.9998662,8.99104819 153.758739,5.82899595 231.754168,12 Z" id="path4259"></path>
                        <path d="M272.22807,6.50007913 C272.22807,10.0899042 268.096465,13 263,13 C257.903535,13 253.77193,10.0899042 253.77193,6.50007913 C253.77193,2.91025407 257.903535,0 263,0 C268.096465,0 272.22807,2.91009581 272.22807,6.50007913 Z" id="path4261"></path>
                        <path d="M294.245832,12 C284.564077,11.049893 286.268119,2.09306065 294.245832,1 C369.920391,6.08296432 447.625156,4.4761217 526,6.69281812 C448.000134,8.99104819 372.241261,5.82899595 294.245832,12 Z" id="path4263"></path>
                    </g>
                </g>
            </g>
        </g>
    </g>
</svg>