<?xml version="1.0" encoding="UTF-8"?>
<svg width="16px" height="18px" viewBox="0 0 16 18" version="1.1" xmlns="http://www.w3.org/2000/svg" xmlns:xlink="http://www.w3.org/1999/xlink">
    <title>calendar / calendar_check</title>
    <defs>
        <rect id="path-1" x="0" y="0" width="20" height="20"></rect>
    </defs>
    <g id="Page-1" stroke="none" stroke-width="1" fill="none" fill-rule="evenodd">
        <g id="Custom-Preset" transform="translate(-317.000000, -2389.000000)">
            <g id="See-new-hotels" transform="translate(-1.000000, 2010.000000)">
                <g id="Hotel" transform="translate(78.000000, 112.000000)">
                    <g id="calendar-/-calendar_check" transform="translate(238.000000, 266.000000)">
                        <mask id="mask-2" fill="white">
                            <use xlink:href="#path-1"></use>
                        </mask>
                        <g id="calendar-/-calendar_check-(Background/Mask)"></g>
                        <path d="M13.9225006,10.5891927 L12.7441661,9.41085815 L9.16666587,12.9883575 L7.25583235,11.0775248 L6.07749939,12.2558594 L9.16666587,15.3450267 L13.9225006,10.5891927 Z M15.8333333,3.33333333 L14.1666667,3.33333333 L14.1666667,1.66666667 L12.5,1.66666667 L12.5,3.33333333 L7.5,3.33333333 L7.5,1.66666667 L5.83333333,1.66666667 L5.83333333,3.33333333 L4.16666667,3.33333333 C3.24749986,3.33333333 2.5,4.0808332 2.5,5 L2.5,16.6666667 C2.5,17.5858339 3.24749986,18.3333333 4.16666667,18.3333333 L15.8333333,18.3333333 C16.7525005,18.3333333 17.5,17.5858339 17.5,16.6666667 L17.5,5 C17.5,4.0808332 16.7525005,3.33333333 15.8333333,3.33333333 L15.8333333,3.33333333 Z M15.8350007,16.6666667 L4.16666667,16.6666667 L4.16666667,8.33333333 L15.8333333,8.33333333 L15.8350007,16.6666667 L15.8350007,16.6666667 Z M15.8335718,6.66666667 L15.8333333,5 L4.16666667,5 L4.16666667,6.66666667 L15.8335718,6.66666667 L15.8335718,6.66666667 Z" fill="#FFFFFF" mask="url(#mask-2)"></path>
                    </g>
                </g>
            </g>
        </g>
    </g>
</svg>