<?xml version="1.0" encoding="UTF-8"?>
<svg width="29px" height="20px" viewBox="0 0 29 20" version="1.1" xmlns="http://www.w3.org/2000/svg" xmlns:xlink="http://www.w3.org/1999/xlink">
    <title>Bathtub</title>
    <g id="Page-1" stroke="none" stroke-width="1" fill="none" fill-rule="evenodd">
        <g id="Desktop" transform="translate(-73.000000, -868.000000)" fill="#000000" fill-rule="nonzero">
            <g id="Facilities" transform="translate(73.675200, 620.000000)">
                <g id="Premium-room" transform="translate(0.000000, 179.000000)">
                    <g id="Icons" transform="translate(0.000000, 62.146880)">
                        <g id="Bathtub" transform="translate(0.000000, 7.018560)">
                            <path d="M26.8920515,6.90774109 C26.8920515,5.17659789 25.4832359,3.76778227 23.7520927,3.76778227 L4.24790731,3.76778227 C2.5167641,3.76778227 1.10794848,5.17659789 1.10794848,6.90774109 L1.10794848,10.0476999 L26.8920515,10.0476999 L26.8920515,6.90774109 Z M27.4458154,11.1560692 L1.10794848,11.1560692 L1.10794848,17.3122736 C1.10794848,17.9779685 1.64950933,18.5191085 2.31478337,18.5191085 C2.94176523,18.5191085 3.45849927,18.0381419 3.51572715,17.425467 L2.58745736,16.7349454 C2.34171413,16.5523211 2.29079815,16.2051667 2.4734224,15.9598443 C2.58240784,15.8134083 2.74946274,15.7364031 2.9186216,15.7364031 C3.03349814,15.7364031 3.14963707,15.7721705 3.24894426,15.8458094 L6.27781368,18.0991569 C6.5235569,18.2817812 6.57447288,18.6289355 6.39184863,18.8746788 C6.20922439,19.1200012 5.86207,19.1709172 5.61632678,18.9882929 L4.47597722,18.1399739 C4.14228821,19.0089118 3.29986024,19.6274778 2.31478337,19.6274778 C1.03851761,19.6274778 0,18.5889602 0,17.3122736 L0,10.6018846 L0,10.0969327 L0,6.90774109 C0,4.56560617 1.90577238,2.65983379 4.24790731,2.65983379 L4.47387325,2.65983379 L2.76040336,0.945943103 C2.54369486,0.7296554 2.54369486,0.378713876 2.76040336,0.162426173 C2.86854721,0.0542823222 3.01035452,0 3.15216183,0 C3.29396913,0 3.43577644,0.0542823222 3.54392029,0.162426173 L6.0413279,2.65983379 L21.9586721,2.65983379 L24.4560797,0.162426173 C24.5642236,0.0542823222 24.7060309,0 24.8478382,0 C24.9896455,0 25.1314528,0.0542823222 25.2395966,0.162426173 C25.4563051,0.378713876 25.4563051,0.7296554 25.2395966,0.945943103 L23.5261267,2.65983379 L23.7520927,2.65983379 C26.0942276,2.65983379 28,4.56560617 28,6.90774109 L28,10.6018846 C28,10.9078012 27.7521528,11.1560692 27.4458154,11.1560692" id="path66" transform="translate(14.000000, 9.813739) scale(-1, 1) rotate(-180.000000) translate(-14.000000, -9.813739) "></path>
                            <path d="M3.70045536,4.47555642 C3.89780737,4.27862521 4.2176102,4.27862521 4.41454141,4.47555642 C4.61189342,4.67290843 4.61189342,4.99271126 4.41454141,5.18964248 C4.2176102,5.38699448 3.44082596,5.44927188 3.44082596,5.44927188 C3.44082596,5.44927188 3.50352414,4.67290843 3.70045536,4.47555642" id="path68" transform="translate(4.001691, 4.888565) scale(-1, 1) rotate(-180.000000) translate(-4.001691, -4.888565) "></path>
                            <path d="M7.00536511,5.52869659 C6.8080131,5.7260486 6.03164966,5.78832599 6.03164966,5.78832599 C6.03164966,5.78832599 6.09434785,5.01196255 6.29127906,4.81503133 C6.48863107,4.61767933 6.8080131,4.61767933 7.00536511,4.81503133 C7.20229633,5.01196255 7.20229633,5.33176538 7.00536511,5.52869659" id="path70" transform="translate(6.592357, 5.227672) scale(-1, 1) rotate(-180.000000) translate(-6.592357, -5.227672) "></path>
                            <path d="M6.03164966,8.17716896 C6.03164966,8.17716896 6.09434785,7.40080552 6.29127906,7.2038743 C6.48863107,7.00652229 6.8080131,7.00652229 7.00536511,7.2038743 C7.20229633,7.40080552 7.20229633,7.72060835 7.00536511,7.91796036 C6.8080131,8.11489157 6.03164966,8.17716896 6.03164966,8.17716896" id="path72" transform="translate(6.592357, 7.616515) scale(-1, 1) rotate(-180.000000) translate(-6.592357, -7.616515) "></path>
                            <path d="M9.48678259,5.37521228 C9.68413459,5.57214349 9.68413459,5.89194632 9.48678259,6.08929833 C9.28985137,6.28622954 8.51306713,6.34892773 8.51306713,6.34892773 C8.51306713,6.34892773 8.57576532,5.57214349 8.77269653,5.37521228 C8.97004854,5.17828106 9.28985137,5.17828106 9.48678259,5.37521228" id="path74" transform="translate(9.073932, 5.788221) scale(-1, 1) rotate(-180.000000) translate(-9.073932, -5.788221) "></path>
                            <path d="M6.55637877,2.7885965 C6.75373078,2.59166529 7.07311282,2.59166529 7.27046483,2.7885965 C7.46781683,2.98594851 7.46781683,3.30575134 7.27046483,3.50268256 C7.07311282,3.70003457 6.29674937,3.76231196 6.29674937,3.76231196 C6.29674937,3.76231196 6.35944756,2.98594851 6.55637877,2.7885965" id="path76" transform="translate(6.857614, 3.201605) scale(-1, 1) rotate(-180.000000) translate(-6.857614, -3.201605) "></path>
                        </g>
                    </g>
                </g>
            </g>
        </g>
    </g>
</svg>