<?xml version="1.0" encoding="UTF-8"?>
<svg width="35px" height="23px" viewBox="0 0 35 23" version="1.1" xmlns="http://www.w3.org/2000/svg" xmlns:xlink="http://www.w3.org/1999/xlink">
    <title>Bed</title>
    <g id="Page-1" stroke="none" stroke-width="1" fill="none" fill-rule="evenodd">
        <g id="Desktop" transform="translate(-472.000000, -688.000000)" fill="#080808" fill-rule="nonzero">
            <g id="Facilities" transform="translate(73.675200, 620.000000)">
                <g id="Standard-room" transform="translate(4.324800, 0.000000)">
                    <g id="Icons" transform="translate(0.225280, 68.000000)">
                        <g id="Bed" transform="translate(393.844800, 0.452160)">
                            <g transform="translate(0.000000, -0.000000)" id="path26">
                                <path d="M1.27647803,7.81312046 L1.27647803,11.7409105 L32.7240594,11.7409105 L32.7240594,7.81312046 L1.27647803,7.81312046 Z M3.42472336,14.3035409 C3.42472336,14.9108758 4.52383813,15.5907683 5.99487828,15.5907683 C7.46591843,15.5907683 8.56557066,14.9108758 8.56557066,14.3035409 C8.56557066,13.6962061 7.46591843,13.0168511 5.99487828,13.0168511 C4.52383813,13.0168511 3.42472336,13.6962061 3.42472336,14.3035409 L3.42472336,14.3035409 Z M33.3620297,16.0051533 C33.0094531,16.0051533 32.7240594,15.7197597 32.7240594,15.3671831 L32.7240594,13.0168511 L9.33629466,13.0168511 C9.65769839,13.3930762 9.84151122,13.8311097 9.84151122,14.3035409 C9.84151122,15.7407208 8.15172305,16.8667088 5.99487828,16.8667088 C3.83857098,16.8667088 2.1487828,15.7407208 2.1487828,14.3035409 C2.1487828,13.8311097 2.33205817,13.3930762 2.65399937,13.0168511 L1.27647803,13.0168511 L1.27647803,21.0153968 C1.27647803,21.3679734 0.990546949,21.6533671 0.637970281,21.6533671 C0.285931078,21.6533671 0,21.3679734 0,21.0153968 L0,12.3788808 L0,10.9717989 L0,9.7195068 L0,7.17515017 L0,0.638507746 C0,0.285931078 0.285931078,-2.84217094e-14 0.637970281,-2.84217094e-14 C0.990546949,-2.84217094e-14 1.27647803,0.285931078 1.27647803,0.638507746 L1.27647803,6.53664243 L32.7240594,6.53664243 L32.7240594,0.638507746 C32.7240594,0.285931078 33.0094531,-2.84217094e-14 33.3620297,-2.84217094e-14 C33.7146064,-2.84217094e-14 34,0.285931078 34,0.638507746 L34,7.17515017 L34,12.3788808 L34,15.3671831 C34,15.7197597 33.7146064,16.0051533 33.3620297,16.0051533" transform="translate(17.000000, 10.826684) scale(-1, 1) rotate(-180.000000) translate(-17.000000, -10.826684) "></path>
                            </g>
                        </g>
                    </g>
                </g>
            </g>
        </g>
    </g>
</svg>