<?xml version="1.0" encoding="UTF-8"?>
<svg width="29px" height="19px" viewBox="0 0 29 19" version="1.1" xmlns="http://www.w3.org/2000/svg" xmlns:xlink="http://www.w3.org/1999/xlink">
    <title>Car</title>
    <g id="Page-1" stroke="none" stroke-width="1" fill="none" fill-rule="evenodd">
        <g id="Desktop" transform="translate(-74.000000, -1016.000000)" fill="#000000" fill-rule="nonzero">
            <g id="Facilities" transform="translate(73.675200, 620.000000)">
                <g id="Superior" transform="translate(0.324800, 329.000000)">
                    <g id="Icons" transform="translate(0.478924, 63.204480)">
                        <g id="Car-valeting" transform="translate(0.000000, 3.795520)">
                            <g id="Car" transform="translate(0.000000, 0.404160)">
                                <path d="M26.9850465,9.88610977 L25.1126458,9.88689781 C24.9357291,11.2293367 23.7843918,12.2695593 22.394276,12.2695593 C21.0049484,12.2695593 19.854005,11.2309128 19.6759063,9.88926196 L8.33235708,9.89438427 C8.15189421,11.2332769 7.00252698,12.2695593 5.6147754,12.2695593 C4.22781186,12.2695593 3.07883866,11.234853 2.89758774,9.89674841 L2.04216222,9.89714243 C2.03743393,9.89674841 2.02837139,9.89714243 2.02127896,9.89674841 C1.61819268,9.87744124 1.38453661,9.97752327 1.18831279,10.2509757 C0.839207762,10.7383831 0.873093803,11.2789837 0.953080621,11.9354272 C0.953474644,11.9377913 0.953868668,11.9405495 0.954262692,11.9433077 C1.01809454,12.5504982 1.26002511,13.6186966 1.6816305,14.2286453 L21.3063765,14.2286453 C21.5735246,14.1715119 21.8887436,14.1061039 22.2618841,14.0292693 C23.5464014,13.7656674 25.1449557,13.4374457 25.87981,13.1253789 C26.3006273,12.9464921 26.6142702,12.6029034 26.8120701,12.1036753 C27.1296532,11.301443 27.0677915,10.3254462 26.9850465,9.88610977 L26.9850465,9.88610977 Z M23.3990365,7.98376319 C23.1003666,7.78872144 22.7528376,7.68588125 22.394276,7.68588125 C21.3792709,7.68588125 20.5533972,8.51136097 20.5533972,9.5263661 C20.5533972,10.5413712 21.3792709,11.367245 22.394276,11.367245 C23.4092812,11.367245 24.2347609,10.5413712 24.2347609,9.5263661 C24.2347609,8.90223251 23.9223001,8.32577579 23.3990365,7.98376319 Z M5.6147754,7.68588125 C4.59977026,7.68588125 3.77389652,8.51136097 3.77389652,9.5263661 C3.77389652,10.5413712 4.59977026,11.367245 5.6147754,11.367245 C6.62978053,11.367245 7.45565427,10.5413712 7.45565427,9.5263661 C7.45565427,8.51136097 6.62978053,7.68588125 5.6147754,7.68588125 Z M6.00525291,16.9422868 C6.15340584,16.9682923 6.30116474,16.996268 6.4449834,17.0230616 C6.62584029,17.0569477 6.81260754,17.0920158 6.99504053,17.1227496 C8.2381854,17.3315822 9.54082786,17.4336344 11.003838,17.4348164 L11.003838,15.1309597 L3.12927369,15.1309597 L6.00525291,16.9422868 Z M14.9531378,17.177913 C15.8913084,17.0380345 16.7234865,16.6235216 17.4831642,16.1967939 C18.0548927,15.8752705 18.6337135,15.517891 19.2125344,15.1309597 L11.9061523,15.1309597 L11.9061523,17.4233897 C12.1859092,17.4162973 12.4711824,17.4060527 12.763942,17.3918678 C13.4964321,17.3571938 14.2332565,17.2850874 14.9531378,17.177913 L14.9531378,17.177913 Z M26.2324612,13.9559809 C25.414862,14.3031158 23.8360089,14.6273973 22.443529,14.9130645 C21.6424787,15.0777665 20.6491449,15.2814767 20.4418884,15.3795886 C19.604194,15.9757465 18.757437,16.515165 17.9252589,16.9832652 C17.0903226,17.4525475 16.1687011,17.908827 15.0863179,18.0703767 C14.3360967,18.1818854 13.5693265,18.2567499 12.8068906,18.2930001 C10.5250991,18.4017507 8.63063304,18.3127013 6.84531151,18.0124552 C6.65460403,17.9805393 6.46350252,17.9446831 6.27870538,17.910009 C6.1096692,17.8780931 5.93472267,17.8453892 5.76450441,17.8162314 C5.70579488,17.8063808 5.64984351,17.7851035 5.59980249,17.7531876 L2.14342632,15.5762065 C0.453852552,15.3216672 0.0952909559,12.4023453 0.0570706538,12.0410256 C-0.0355249232,11.2793777 -0.0808376524,10.4732051 0.455034623,9.72534808 C0.828569121,9.20405469 1.35143861,8.96488228 2.05201281,8.99482808 L2.92398733,8.99443406 C3.1726163,7.73592226 4.28415725,6.7835669 5.6147754,6.7835669 C6.94460549,6.7835669 8.05575242,7.73474019 8.30516944,8.99206992 L19.70467,8.98694761 C19.9560572,7.73198202 21.0664161,6.7835669 22.394276,6.7835669 C22.9285722,6.7835669 23.4467134,6.93723616 23.8923543,7.22841969 C24.5172759,7.63662828 24.9396693,8.27021844 25.0827,8.98458347 L27.2931731,8.9834014 C27.7210829,8.9834014 27.8160426,9.45031952 27.8613553,9.67451902 C28.0485166,10.5933824 28.1206229,13.1541426 26.2324612,13.9559809" id="path82" transform="translate(13.975792, 12.560568) scale(-1, 1) rotate(-180.000000) translate(-13.975792, -12.560568) "></path>
                                <path d="M27.7057159,0.874338662 L14.241925,5.87607592 C14.1406609,5.91350817 14.0287582,5.91350817 13.9274941,5.87607592 L0.463703145,0.874338662 C0.230047072,0.787259417 0.111051905,0.527597777 0.197737126,0.294335728 C0.284422347,0.0606796548 0.544083987,-0.0583155124 0.77774006,0.0283697087 L14.0847095,4.97179145 L27.391679,0.0283697087 C27.4432961,0.00906254584 27.4964893,-3.49963376e-14 27.5485005,-3.49963376e-14 C27.7317215,-3.49963376e-14 27.9039099,0.112296764 27.971682,0.294335728 C28.0583672,0.527597777 27.939372,0.787259417 27.7057159,0.874338662" id="path84" transform="translate(14.084710, 2.952075) scale(-1, 1) rotate(-180.000000) translate(-14.084710, -2.952075) "></path>
                            </g>
                        </g>
                    </g>
                </g>
            </g>
        </g>
    </g>
</svg>