<?xml version="1.0" encoding="UTF-8"?>
<svg width="21px" height="22px" viewBox="0 0 21 22" version="1.1" xmlns="http://www.w3.org/2000/svg" xmlns:xlink="http://www.w3.org/1999/xlink">
    <title>Group</title>
    <g id="Page-1" stroke="none" stroke-width="1" fill="none" fill-rule="evenodd">
        <g id="Desktop" transform="translate(-280.000000, -689.000000)" fill="#000000" fill-rule="nonzero">
            <g id="Facilities" transform="translate(73.675200, 620.000000)">
                <g id="Standard-room" transform="translate(4.324800, 0.000000)">
                    <g id="Icons" transform="translate(0.225280, 68.000000)">
                        <g id="Group" transform="translate(201.969644, 1.111680)">
                            <path d="M9.99979596,2.38688837 C5.01776629,2.38688837 0.964408942,6.44021144 0.964408942,11.422721 C0.964408942,16.4048877 5.01776629,20.4582108 9.99979596,20.4582108 C14.9823055,20.4582108 19.0356285,16.4048877 19.0356285,11.422721 C19.0356285,6.44021144 14.9823055,2.38688837 9.99979596,2.38688837 L9.99979596,2.38688837 Z M1.47972868,19.3288603 C2.31531098,20.2669581 3.69993931,20.4318193 4.72430652,19.7716891 C3.31126449,18.8757491 2.1400303,17.6312356 1.3325875,16.1598238 C0.641610052,17.0975789 0.674787938,18.4250371 1.47972868,19.3288603 Z M18.5201374,19.3288603 C19.3252496,18.4253798 19.358496,17.0975789 18.6671758,16.1598238 C17.8600072,17.6312356 16.6888415,18.8757491 15.2756967,19.7716891 C16.3001667,20.432162 17.6848636,20.2669581 18.5201374,19.3288603 Z M19.1504487,19.8902794 C17.9388389,21.2502985 15.8624791,21.3921957 14.4770968,20.227885 C13.1321585,20.9144067 11.6107057,21.3020533 9.99979596,21.3020533 C8.38922898,21.3020533 6.86777615,20.9144067 5.5228379,20.227885 C4.13748981,21.3925384 2.06119854,21.2506413 0.84965733,19.8902794 C-0.322365184,18.5744747 -0.268416846,16.585858 0.92824916,15.3331186 C0.409056382,14.1331623 0.120532167,12.811188 0.120532167,11.422721 C0.120532167,7.64942198 2.24703583,4.36419438 5.36414616,2.70050165 L3.38396108,0.72045367 C3.21930554,0.555592483 3.21930554,0.288592764 3.38396108,0.123731577 C3.46646022,0.0411296101 3.5743569,0 3.68239067,0 C3.79032163,0 3.8983554,0.0411296101 3.98071745,0.123731577 L6.17200025,2.31491155 C7.35002083,1.81827151 8.64354707,1.54304587 9.99979596,1.54304587 C11.3563876,1.54304587 12.6499138,1.81827151 13.8279344,2.31491155 L16.0191144,0.123731577 C16.1017164,0.0411296101 16.2096816,0 16.3176468,0 C16.425612,0 16.5335773,0.0411296101 16.6158365,0.123731577 C16.7806977,0.288592764 16.7806977,0.555592483 16.6158365,0.72045367 L14.6357885,2.70050165 C17.7527275,4.36419438 19.879471,7.64942198 19.879471,11.422721 C19.879471,12.811188 19.5908783,14.1331623 19.071617,15.3331186 C20.2684886,16.585858 20.3222998,18.5744747 19.1504487,19.8902794" id="path174-copy" transform="translate(10.000000, 10.651027) scale(-1, 1) rotate(-180.000000) translate(-10.000000, -10.651027) "></path>
                            <path d="M10.42206,10.3931097 C10.42206,10.6261775 10.2328637,10.815031 9.99979596,10.815031 C9.76707092,10.815031 9.57787471,10.6261775 9.57787471,10.3931097 L9.57787471,4.0821138 C9.57787471,3.84938876 9.76707092,3.66019255 9.99979596,3.66019255 L16.478395,3.66019255 C16.7111201,3.66019255 16.9003163,3.84938876 16.9003163,4.0821138 C16.9003163,4.31518159 16.7111201,4.50403505 16.478395,4.50403505 L10.42206,4.50403505 L10.42206,10.3931097" id="path176-copy" transform="translate(13.239095, 7.237612) scale(-1, 1) rotate(-180.000000) translate(-13.239095, -7.237612) "></path>
                        </g>
                    </g>
                </g>
            </g>
        </g>
    </g>
</svg>