<?xml version="1.0" encoding="UTF-8"?>
<svg width="31px" height="28px" viewBox="0 0 31 28" version="1.1" xmlns="http://www.w3.org/2000/svg" xmlns:xlink="http://www.w3.org/1999/xlink">
    <title>Coffee</title>
    <g id="Page-1" stroke="none" stroke-width="1" fill="none" fill-rule="evenodd">
        <g id="Desktop" transform="translate(-475.000000, -717.000000)" fill="#000000" fill-rule="nonzero">
            <g id="Facilities" transform="translate(73.675200, 620.000000)">
                <g id="Standard-room" transform="translate(4.324800, 0.000000)">
                    <g id="Icons" transform="translate(0.225280, 68.000000)">
                        <g id="Coffee" transform="translate(397.352960, 29.117030)">
                            <path d="M23.4491804,18.5590696 C23.7270043,18.9135507 23.9876385,19.2828986 24.2292246,19.6657196 C25.3567811,21.4529919 26.0295054,23.4785982 26.2014032,25.580397 C26.7059464,25.6412582 27.2639173,25.5116379 27.7587042,25.2073324 C28.3863634,24.8212593 28.7970597,24.2214754 28.8844024,23.5622242 C29.273263,20.6367098 26.6381165,19.6141503 23.4491804,18.5590696 L23.4491804,18.5590696 Z M21.3292626,17.83013 L21.2154384,17.7246684 C20.4135584,17.001304 19.5052877,16.3773615 18.5045639,15.8769996 C16.8241469,15.0365588 15.0136452,14.6100665 13.1227696,14.6100665 C11.2323586,14.6100665 9.4213922,15.0365588 7.74143982,15.8769996 C3.79057838,17.8528949 1.27761865,21.744289 1.08667273,26.120249 L25.1542205,26.120249 L25.1398183,25.7982891 C24.92332,22.7092395 23.5476731,19.8831471 21.3292626,17.83013 L21.3292626,17.83013 Z M23.4301322,14.0613873 C24.8457337,13.6562661 25.1221639,13.3027141 25.1653706,13.2311675 C25.1072971,13.136856 24.6310938,12.5393951 21.6688768,12.0014015 C19.3542964,11.5809488 16.3196037,11.3495837 13.1227696,11.3495837 C9.92640001,11.3495837 6.89124269,11.5809488 4.57712688,12.0014015 C1.61490997,12.5393951 1.13824207,13.136856 1.08063308,13.2311675 C1.12337523,13.3027141 1.39980545,13.6562661 2.81540691,14.0613873 C3.96944499,14.3917098 5.5541567,14.6621004 7.40368391,14.8460775 C9.19420837,13.9768322 11.1171406,13.5350084 13.1227696,13.5350084 C15.1288631,13.5350084 17.0517953,13.9768322 18.8423198,14.8460775 C20.691847,14.6621004 22.2765587,14.3917098 23.4301322,14.0613873 L23.4301322,14.0613873 Z M29.9501686,23.7039237 C29.8196192,24.6851348 29.2263396,25.566924 28.3222502,26.1230365 C27.6755428,26.5207244 26.9405637,26.7056306 26.2455391,26.6619593 C26.2432162,26.9569731 26.0039531,27.1957716 25.7084747,27.1957716 L0.537529009,27.1957716 C0.240656894,27.1957716 1.65055027e-13,26.9551147 1.65055027e-13,26.6582426 C1.65055027e-13,24.1745519 0.697347487,21.7568329 2.01631452,19.6657196 C3.00449447,18.100056 4.30813008,16.7671513 5.8352328,15.7459856 C4.43867947,15.5573626 3.2395763,15.3162411 2.3145804,15.0342359 C1.32082539,14.7317887 1.65055027e-13,14.2156307 1.65055027e-13,13.2311675 C1.65055027e-13,12.3930497 0.98167571,11.94658 1.3041002,11.8002346 C1.97682449,11.4945353 2.92458523,11.222751 4.12229464,10.9927796 C6.53165111,10.5295848 9.72802067,10.2745257 13.1227696,10.2745257 C16.5175185,10.2745257 19.7143526,10.5295848 22.1237091,10.9927796 C23.3209539,11.222751 24.2691792,11.4945353 24.9419035,11.8002346 C25.264328,11.94658 26.2460037,12.3930497 26.2460037,13.2311675 C26.2460037,14.2156307 24.9251783,14.7317887 23.9314233,15.0342359 C23.0064274,15.3162411 21.8073242,15.5573626 20.4107709,15.7459856 C20.9399373,16.0995375 21.4426222,16.4897919 21.913715,16.9153551 C22.3597201,17.0695985 22.8159461,17.2196606 23.258699,17.3646123 C25.0710592,17.9597503 26.7830681,18.5214379 28.0523242,19.4236689 C29.5687414,20.5015145 30.1894317,21.9017845 29.9501686,23.7039237" id="path126-copy" transform="translate(15.000000, 18.735149) scale(-1, 1) rotate(-180.000000) translate(-15.000000, -18.735149) "></path>
                            <path d="M10.8267727,2.9789421 C10.6609146,2.73271014 10.7254924,2.39867094 10.9717244,2.23281281 C11.0641775,2.17055793 11.1687099,2.14082426 11.2718486,2.14082426 C11.4446755,2.14082426 11.6142504,2.22398562 11.7183182,2.37776445 C12.1243687,2.98033586 12.6372745,4.40151239 11.6709302,5.46820781 C11.0446648,6.15905106 11.6760407,7.06267588 11.7071681,7.10634721 C11.8809242,7.34561034 11.8293549,7.68057872 11.5905564,7.85572862 C11.3512932,8.03134311 11.0149311,7.97977378 10.838852,7.74051065 C10.424439,7.1760355 9.8980601,5.8231535 10.8741607,4.74623713 C11.5143638,4.03959787 10.8537188,3.01982589 10.8267727,2.9789421" id="path128-copy" transform="translate(11.271501, 5.050385) scale(-1, 1) rotate(-180.000000) translate(-11.271501, -5.050385) "></path>
                            <path d="M14.5276855,0.838582421 C14.3618274,0.592350464 14.4268698,0.258311261 14.6731017,0.0919885426 C14.7650903,0.0301982589 14.8696227,0 14.973226,0 C15.1455883,0 15.3156278,0.0831613592 15.419231,0.237404774 C15.8252814,0.839511598 16.3386518,2.26068812 15.371843,3.32738355 C14.7460421,4.01822679 15.377418,4.92231621 15.4085455,4.96598753 C15.5823016,5.20525066 15.5302677,5.54021904 15.2914691,5.71536894 C15.0526706,5.89098343 14.7158439,5.8394141 14.5402294,5.60015097 C14.1258164,5.03521124 13.5994375,3.68279382 14.5750735,2.60541286 C15.2157412,1.8987736 14.5546316,0.879466218 14.5276855,0.838582421" id="path130-copy" transform="translate(14.972699, 2.909793) scale(-1, 1) rotate(-180.000000) translate(-14.972699, -2.909793) "></path>
                        </g>
                    </g>
                </g>
            </g>
        </g>
    </g>
</svg>