<?xml version="1.0" encoding="UTF-8"?>
<svg width="21px" height="35px" viewBox="0 0 21 35" version="1.1" xmlns="http://www.w3.org/2000/svg" xmlns:xlink="http://www.w3.org/1999/xlink">
    <title>Room size</title>
    <g id="Page-1" stroke="none" stroke-width="1" fill="none" fill-rule="evenodd">
        <g id="Desktop" transform="translate(-277.000000, -861.000000)" fill="#000000" fill-rule="nonzero">
            <g id="Facilities" transform="translate(73.675200, 620.000000)">
                <g id="Premium-room" transform="translate(0.000000, 179.000000)">
                    <g id="Icons" transform="translate(0.000000, 62.146880)">
                        <g id="Room-size" transform="translate(203.958720, 0.000000)">
                            <path d="M18.9073206,7.54314564 L1.09267941,7.54314564 L1.09267941,27.2093143 L18.9073206,27.2093143 L18.9073206,7.54314564 Z M19.4534027,28.3019937 L0.54659729,28.3019937 C0.24470661,28.3019937 -2.04342076e-13,28.0572871 -2.04342076e-13,27.7559116 L-2.04342076e-13,6.99654835 C-2.04342076e-13,6.69517284 0.24470661,6.45046623 0.54659729,6.45046623 L19.4534027,6.45046623 C19.7552934,6.45046623 20,6.69517284 20,6.99654835 L20,27.7559116 C20,28.0572871 19.7552934,28.3019937 19.4534027,28.3019937" id="path138-copy" transform="translate(10.000000, 17.376230) scale(-1, 1) rotate(-180.000000) translate(-10.000000, -17.376230) "></path>
                            <path d="M8.27881098,23.2048838 C8.27881098,24.1538303 9.05105353,24.9260728 10,24.9260728 C10.9489465,24.9260728 11.721189,24.1538303 11.721189,23.2048838 C11.721189,22.2554222 10.9489465,21.4831796 10,21.4831796 C9.05105353,21.4831796 8.27881098,22.2554222 8.27881098,23.2048838 Z M10.2828293,9.8263871 L9.71717068,9.8263871 L9.19427129,13.4635001 L10.8057287,13.4635001 L10.2828293,9.8263871 Z M11.721189,20.3910154 L11.721189,14.5561795 L8.27881098,14.5561795 L8.27881098,20.3910154 L11.721189,20.3910154 Z M7.73221369,13.4635001 L8.0902581,13.4635001 L8.70331255,9.20251404 C8.74195044,8.93359435 8.97223224,8.73370769 9.24424296,8.73370769 L10.755757,8.73370769 C11.0277678,8.73370769 11.2580496,8.93359435 11.2966874,9.20251404 L11.9097419,13.4635001 L12.2677863,13.4635001 C12.5691618,13.4635001 12.8138684,13.7082067 12.8138684,14.0100974 L12.8138684,20.9370975 C12.8138684,21.2389882 12.5691618,21.4831796 12.2677863,21.4831796 L12.2234815,21.4831796 C12.5928597,21.9597136 12.8138684,22.5567977 12.8138684,23.2048838 C12.8138684,24.7565813 11.5516975,26.0187523 10,26.0187523 C8.44830251,26.0187523 7.18613157,24.7565813 7.18613157,23.2048838 C7.18613157,22.5567977 7.40714028,21.9597136 7.77651847,21.4831796 L7.73221369,21.4831796 C7.43083818,21.4831796 7.18613157,21.2389882 7.18613157,20.9370975 L7.18613157,14.0100974 C7.18613157,13.7082067 7.43083818,13.4635001 7.73221369,13.4635001" id="path140-copy" transform="translate(10.000000, 17.376230) scale(-1, 1) rotate(-180.000000) translate(-10.000000, -17.376230) "></path>
                            <path d="M6.74669002,0.160218433 L10,3.41301324 L13.25331,0.160218433 C13.3599505,0.0535778682 13.4995621,2.28782242e-14 13.6391737,2.28782242e-14 C13.7793004,2.28782242e-14 13.918912,0.0535778682 14.0255525,0.160218433 C14.2388337,0.373499562 14.2388337,0.719179846 14.0255525,0.932460976 L10.3863789,4.57214981 C10.2838597,4.674669 10.1447633,4.73185307 10,4.73185307 C9.85523672,4.73185307 9.71614033,4.674669 9.61362114,4.57214981 L5.97444748,0.932460976 C5.76116635,0.719179846 5.76116635,0.373499562 5.97444748,0.160218433 C6.18772861,-0.0530626964 6.53340889,-0.0530626964 6.74669002,0.160218433" id="path142-copy" transform="translate(10.000000, 2.365927) scale(-1, 1) rotate(-180.000000) translate(-10.000000, -2.365927) "></path>
                            <path d="M13.25331,34.5924476 L10,31.3396013 L6.74669002,34.5924476 C6.53340889,34.8057287 6.18772861,34.8057287 5.97444748,34.5924476 C5.76116635,34.3791665 5.76116635,34.0334862 5.97444748,33.820205 L9.61362114,30.1804647 C9.71614033,30.077997 9.85523672,30.0208645 10,30.0208645 C10.1447633,30.0208645 10.2838597,30.077997 10.3863789,30.1804647 L14.0255525,33.820205 C14.2388337,34.0334862 14.2388337,34.3791665 14.0255525,34.5924476 C13.8122714,34.8057287 13.4665911,34.8057287 13.25331,34.5924476" id="path144-copy" transform="translate(10.000000, 32.386636) scale(-1, 1) rotate(-180.000000) translate(-10.000000, -32.386636) "></path>
                        </g>
                    </g>
                </g>
            </g>
        </g>
    </g>
</svg>