<?xml version="1.0" encoding="UTF-8"?>
<svg width="29px" height="25px" viewBox="0 0 29 25" version="1.1" xmlns="http://www.w3.org/2000/svg" xmlns:xlink="http://www.w3.org/1999/xlink">
    <title>Laptop safe</title>
    <g id="Page-1" stroke="none" stroke-width="1" fill="none" fill-rule="evenodd">
        <g id="Desktop" transform="translate(-480.000000, -1012.000000)" fill="#000000" fill-rule="nonzero">
            <g id="Facilities" transform="translate(73.675200, 620.000000)">
                <g id="Superior" transform="translate(0.324800, 329.000000)">
                    <g id="Icons" transform="translate(0.478924, 63.204480)">
                        <g id="Laptop-safe" transform="translate(405.929396, 0.024960)">
                            <path d="M25.652625,11.3069101 C24.7636439,10.4183164 23.5822093,9.92908626 22.3252404,9.92908626 C21.9603514,9.92908626 21.5954624,9.97130802 21.241032,10.0545895 C21.077568,10.093325 20.9059694,10.0441309 20.7874386,9.92560006 L11.8302276,0.968776371 L9.51810196,0.968776371 L9.51810196,3.28128934 L11.3630767,5.12626409 L11.9355883,4.55413986 C12.0301031,4.45923774 12.1540569,4.41198036 12.2780107,4.41198036 C12.4019644,4.41198036 12.5259182,4.45923774 12.620433,4.55413986 C12.8098499,4.7431694 12.8098499,5.04995504 12.620433,5.23898457 L12.0483088,5.81110881 L13.2797123,7.04289963 L14.2070416,6.11557031 C14.3015563,6.02105554 14.4255101,5.97379816 14.5494639,5.97379816 C14.6734177,5.97379816 14.7973715,6.02105554 14.8918863,6.11557031 C15.0813032,6.30459985 15.0813032,6.61138549 14.8918863,6.80041502 L13.9649443,7.72774435 L15.1049319,8.86811925 L15.6774435,8.29599502 C15.7719582,8.20148025 15.895912,8.15422287 16.0198658,8.15422287 C16.1438196,8.15422287 16.2677734,8.20148025 16.3622882,8.29599502 C16.5517051,8.48502456 16.5517051,8.7918102 16.3622882,8.98083973 L15.7901639,9.55335132 L18.0856333,11.8484333 C18.2363146,11.999502 18.2707892,12.2311406 18.1704641,12.4193954 C17.187743,14.2597219 17.5193194,16.4877914 18.9955316,17.9636162 C19.8845127,18.8529847 21.066722,19.3426022 22.3240783,19.3426022 C23.5814346,19.3426022 24.7632566,18.8529847 25.6522377,17.9636162 C26.5412188,17.0746351 27.0312236,15.8928132 27.0312236,14.6354569 C27.0312236,13.3781006 26.5416061,12.1958913 25.652625,11.3069101 L25.652625,11.3069101 Z M15.7816421,19.4076779 L5.2509926,8.87664107 L1.16981393,12.9582071 L11.7004634,23.4888566 L13.4997302,21.6892025 C13.3401397,21.542782 13.1805492,21.3905513 13.0209587,21.2305734 C12.8315418,21.0415439 12.8315418,20.7347582 13.0209587,20.5457287 C13.2099882,20.3566992 13.5167739,20.3566992 13.7058034,20.5457287 C13.8661686,20.7057066 14.0257591,20.85755 14.1853497,21.003583 L15.7816421,19.4076779 Z M26.5582624,18.4141108 C27.031611,19.8926472 26.0907242,21.8910147 24.2442,23.2142215 C21.8867538,24.9030919 18.1243688,25.4376427 14.2360932,22.3233036 L12.0428858,24.5161237 C11.8538563,24.7055406 11.5470706,24.7055406 11.3580411,24.5161237 L0.142159508,13.3006295 C0.05113094,13.2096009 0,13.0864218 0,12.9582071 C0,12.829605 0.05113094,12.706426 0.142159508,12.6153974 L4.90818289,7.84937401 C4.99921145,7.75834544 5.12239054,7.7072145 5.2509926,7.7072145 C5.3792073,7.7072145 5.50238639,7.75834544 5.59341495,7.84937401 L16.8092965,19.0648682 C16.9983261,19.2542851 16.9983261,19.5610708 16.8092965,19.7501003 L14.9271356,21.6322612 C18.3699523,24.3317424 21.6403957,23.8878329 23.6798229,22.4263402 C24.9577091,21.5114062 25.7421042,20.2114408 25.7161513,19.1868852 C24.7415646,19.9162759 23.5632289,20.3113786 22.3240783,20.3113786 C20.8079685,20.3113786 19.3824998,19.7210486 18.3106869,18.6488483 C17.4325517,17.7707131 16.8770838,16.6582278 16.7043232,15.43186 C16.5544165,14.3666321 16.7143944,13.2638307 17.1555924,12.2884693 L8.69109774,3.8243619 C8.60045653,3.73372069 8.54932559,3.61054161 8.54932559,3.48193954 L8.54932559,0.484581863 C8.54932559,0.21691914 8.76624473,0 9.03390745,0 L12.0308778,0 C12.1594798,0 12.2826589,0.05113094 12.3736875,0.141772152 L21.2871273,9.05521201 C21.6291623,8.99207304 21.9770077,8.96030988 22.3252404,8.96030988 L22.3252404,8.96030988 C23.8409629,8.96030988 25.2660441,9.55025247 26.3374697,10.6220654 C27.4096701,11.6938784 28,13.119347 28,14.6354569 C28,16.0434945 27.4898527,17.3728989 26.5582624,18.4141108" id="path132-copy" transform="translate(14.000000, 12.329093) scale(-1, 1) rotate(-180.000000) translate(-14.000000, -12.329093) "></path>
                            <path d="M23.0945286,10.2862281 C22.8090475,10.5720966 22.3457702,10.5720966 22.0602891,10.2862281 C21.7744207,10.000747 21.7744207,9.53785709 22.0602891,9.25198866 L24.220184,7.0920938 C24.5056651,6.80661271 24.9689424,6.80661271 25.2544235,7.0920938 C25.5402919,7.37796223 25.5402919,7.84085218 25.2544235,8.12633326 L23.0945286,10.2862281" id="path134-copy" transform="translate(23.657356, 8.689306) scale(-1, 1) rotate(-180.000000) translate(-23.657356, -8.689306) "></path>
                        </g>
                    </g>
                </g>
            </g>
        </g>
    </g>
</svg>