<?xml version="1.0" encoding="UTF-8"?>
<svg width="29px" height="27px" viewBox="0 0 29 27" version="1.1" xmlns="http://www.w3.org/2000/svg" xmlns:xlink="http://www.w3.org/1999/xlink">
    <title>path60 copy</title>
    <g id="Page-1" stroke="none" stroke-width="1" fill="none" fill-rule="evenodd">
        <g id="Desktop" transform="translate(-472.000000, -866.000000)" fill="#000000" fill-rule="nonzero">
            <g id="Facilities" transform="translate(73.675200, 620.000000)">
                <g id="Premium-room" transform="translate(0.000000, 179.000000)">
                    <g id="Icons" transform="translate(0.000000, 62.146880)">
                        <g id="Mini-bar" transform="translate(399.087040, 5.632000)">
                            <path d="M13.5845255,15.2152291 L27.0099138,15.2152291 C26.8272677,11.1536151 23.8859431,7.91300417 20.2972196,7.91300417 C16.708044,7.91300417 13.7671715,11.1536151 13.5845255,15.2152291 L13.5845255,15.2152291 Z M9.13863145,13.1518713 C6.17018116,13.1518713 2.37304227,14.0786644 1.28485162,21.1543902 L16.9937676,21.1543902 C16.9499144,20.8645978 16.9010883,20.582491 16.847289,20.3098783 L14.1048858,20.3098783 C13.923144,20.3098783 13.7558692,20.2095134 13.6708754,20.0481157 C12.9665127,18.7112733 12.5939871,17.1791262 12.5939871,15.6162366 C12.5939871,15.0217328 12.6473343,14.4407918 12.7490554,13.8792909 C11.7377208,13.3905771 10.5541383,13.1518713 9.13863145,13.1518713 L9.13863145,13.1518713 Z M17.2926018,25.1052411 C17.2794911,24.0473407 17.221623,23.0554461 17.1212581,22.1354345 L1.15690897,22.1354345 C1.05790035,23.0346498 0.997771822,24.0206672 0.984208997,25.1052411 L17.2926018,25.1052411 Z M26.9990635,16.1967255 L13.5949236,16.1967255 C13.6672587,17.2962186 13.9434882,18.3645171 14.4073368,19.3288339 L26.1871024,19.3288339 C26.6504989,18.3645171 26.9267285,17.2962186 26.9990635,16.1967255 L26.9990635,16.1967255 Z M28,15.6162366 C28,17.1791262 27.6279265,18.7112733 26.9231117,20.0481157 C26.838118,20.2095134 26.6712952,20.3098783 26.4891013,20.3098783 L17.8459651,20.3098783 C18.1316886,21.8393128 18.2772629,23.6155908 18.2772629,25.5962153 C18.2772629,25.8670197 18.0575451,26.0867375 17.7862886,26.0867375 L0.490522169,26.0867375 C0.219717764,26.0867375 0,25.8670197 0,25.5962153 C0,20.6548261 0.863951949,17.1773178 2.64068202,14.9647689 C4.06342235,13.1939161 6.03229244,12.2802338 8.64765718,12.180321 L8.64765718,0.981044338 L5.19230148,0.981044338 C4.92104498,0.981044338 4.70177931,0.761326573 4.70177931,0.490522169 C4.70177931,0.21926567 4.92104498,0 5.19230148,0 L13.0845093,0 C13.3557658,0 13.5754836,0.21926567 13.5754836,0.490522169 C13.5754836,0.761326573 13.3557658,0.981044338 13.0845093,0.981044338 L9.62915362,0.981044338 L9.62915362,12.1807731 C10.8981819,12.2286951 12.0021959,12.4669487 12.9791714,12.9041237 C13.942584,9.6074531 16.6135564,7.17744696 19.8062454,6.95004359 L19.8062454,0.981044338 L16.3508897,0.981044338 C16.0796332,0.981044338 15.8603675,0.761326573 15.8603675,0.490522169 C15.8603675,0.21926567 16.0796332,0 16.3508897,0 L24.2430975,0 C24.514354,0 24.7340718,0.21926567 24.7340718,0.490522169 C24.7340718,0.761326573 24.514354,0.981044338 24.2430975,0.981044338 L20.7877418,0.981044338 L20.7877418,6.95004359 C24.807311,7.2362192 28,11.0134659 28,15.6162366" id="path60-copy" transform="translate(14.000000, 13.043369) scale(-1, 1) rotate(-180.000000) translate(-14.000000, -13.043369) "></path>
                        </g>
                    </g>
                </g>
            </g>
        </g>
    </g>
</svg>