<?xml version="1.0" encoding="UTF-8"?>
<svg width="25px" height="17px" viewBox="0 0 25 17" version="1.1" xmlns="http://www.w3.org/2000/svg" xmlns:xlink="http://www.w3.org/1999/xlink">
    <title>Restaurant</title>
    <g id="Page-1" stroke="none" stroke-width="1" fill="none" fill-rule="evenodd">
        <g id="Desktop" transform="translate(-78.000000, -688.000000)" fill="#000000" fill-rule="nonzero">
            <g id="Facilities" transform="translate(73.675200, 620.000000)">
                <g id="Standard-room" transform="translate(4.324800, 0.000000)">
                    <g id="Icons" transform="translate(0.225280, 68.000000)">
                        <g id="Restaurant" transform="translate(0.000000, 0.151590)">
                            <path d="M12.1048951,3.34852437 C8.83498591,3.34852437 6.17440768,6.0091026 6.17440768,9.2790118 C6.17440768,12.5492341 8.83498591,15.2094992 12.1048951,15.2094992 C15.3751174,15.2094992 18.0353825,12.5492341 18.0353825,9.2790118 C18.0353825,6.0091026 15.3751174,3.34852437 12.1048951,3.34852437 Z M12.1048951,15.9973084 C8.40037574,15.9973084 5.38659848,12.9835312 5.38659848,9.2790118 C5.38659848,5.57480555 8.40037574,2.56102829 12.1048951,2.56102829 C15.8094145,2.56102829 18.8231917,5.57480555 18.8231917,9.2790118 C18.8231917,12.9835312 15.8094145,15.9973084 12.1048951,15.9973084" id="path32-copy" transform="translate(12.104895, 9.279168) scale(-1, 1) rotate(-180.000000) translate(-12.104895, -9.279168) "></path>
                            <path d="M21.2733535,8.63020562 C21.3309675,11.3975577 21.9922764,13.1494625 22.550882,14.1448701 C22.7807118,14.5544306 23.0117942,14.8713078 23.2121908,15.1083394 L23.2121908,8.77142261 L23.2121908,8.63020562 L21.2733535,8.63020562 Z M23.7955328,16.3689594 C23.6693456,16.4381589 23.5156038,16.4331489 23.3941133,16.3554953 C23.275441,16.2797203 20.4814738,14.4254253 20.4814738,8.23630101 C20.4814738,8.01868281 20.6577602,7.84239641 20.8753784,7.84239641 L23.2121908,7.84239641 L23.2121908,0.393904603 C23.2121908,0.1762864 23.3884772,-1.39053087e-14 23.6060954,-1.39053087e-14 C23.8237136,-1.39053087e-14 24,0.1762864 24,0.393904603 L24,8.23630101 L24,8.77142261 L24,16.0235884 C24,16.1673103 23.9217201,16.2997599 23.7955328,16.3689594" id="path34-copy" transform="translate(22.240737, 8.208758) scale(-1, 1) rotate(-180.000000) translate(-22.240737, -8.208758) "></path>
                            <path d="M4.17482517,16.4175151 C3.95720697,16.4175151 3.78092057,16.2412287 3.78092057,16.0236105 L3.78092057,11.0872782 C3.78092057,11.0149475 3.72205407,10.956081 3.64972341,10.956081 L2.67811293,10.956081 L2.67811293,16.0236105 C2.67811293,16.2412287 2.50182653,16.4175151 2.28420833,16.4175151 C2.06690325,16.4175151 1.89030373,16.2412287 1.89030373,16.0236105 L1.89030373,10.956081 L0.919006367,10.956081 C0.846675712,10.956081 0.787809206,11.0149475 0.787809206,11.0872782 L0.787809206,16.0236105 C0.787809206,16.2412287 0.611522806,16.4175151 0.393904603,16.4175151 C0.1762864,16.4175151 0,16.2412287 0,16.0236105 L0,11.0872782 C0,10.5806505 0.412378666,10.1682718 0.919006367,10.1682718 L1.89030373,10.1682718 L1.89030373,0.393926732 C1.89030373,0.176308529 2.06690325,2.21292458e-05 2.28420833,2.21292458e-05 C2.50182653,2.21292458e-05 2.67811293,0.176308529 2.67811293,0.393926732 L2.67811293,10.1682718 L3.64972341,10.1682718 C4.15635111,10.1682718 4.56872978,10.5806505 4.56872978,11.0872782 L4.56872978,16.0236105 C4.56872978,16.2412287 4.39244338,16.4175151 4.17482517,16.4175151" id="path36-copy" transform="translate(2.284365, 8.208769) scale(-1, 1) rotate(-180.000000) translate(-2.284365, -8.208769) "></path>
                        </g>
                    </g>
                </g>
            </g>
        </g>
    </g>
</svg>