<?xml version="1.0" encoding="UTF-8"?>
<svg width="21px" height="25px" viewBox="0 0 21 25" version="1.1" xmlns="http://www.w3.org/2000/svg" xmlns:xlink="http://www.w3.org/1999/xlink">
    <title>Shower</title>
    <g id="Page-1" stroke="none" stroke-width="1" fill="none" fill-rule="evenodd">
        <g id="Desktop" transform="translate(-280.000000, -721.000000)" fill="#000000" fill-rule="nonzero">
            <g id="Facilities" transform="translate(73.675200, 620.000000)">
                <g id="Standard-room" transform="translate(4.324800, 0.000000)">
                    <g id="Icons" transform="translate(0.225280, 68.000000)">
                        <g id="Bathroom" transform="translate(202.165760, 33.429120)">
                            <g id="Shower" transform="translate(0.000000, 0.000000)">
                                <path d="M0.821803694,20.5976096 C0.821803694,22.1839913 2.11227816,23.4744658 3.69829772,23.4744658 C5.28467946,23.4744658 6.57479174,22.1839913 6.57479174,20.5976096 C6.57479174,19.01159 5.28467946,17.7211155 3.69829772,17.7211155 C2.11227816,17.7211155 0.821803694,19.01159 0.821803694,20.5976096 Z M6.57479174,16.8993118 L6.57479174,7.67873959 L0.821803694,7.67873959 L0.821803694,16.8993118 L6.57479174,16.8993118 Z M4.43824701,0.821803694 L2.95871061,0.821803694 L2.0905469,6.85693589 L5.30604853,6.85693589 L4.43824701,0.821803694 Z M7.39695762,20.5976096 C7.39695762,22.637088 5.73777617,24.2962695 3.69829772,24.2962695 C1.65918146,24.2962695 0,22.637088 0,20.5976096 C0,19.4367983 0.538210793,18.3998551 1.37739949,17.7211155 L0.411082941,17.7211155 C0.183991307,17.7211155 0,17.5371242 0,17.3103948 L0,7.26801883 C0,7.0409272 0.183991307,6.85693589 0.411082941,6.85693589 L1.26041289,6.85693589 L2.1959435,0.352408548 C2.22491851,0.150307859 2.39840637,4.90573013e-13 2.60268019,4.90573013e-13 L4.79427744,4.90573013e-13 C4.99855125,4.90573013e-13 5.17203912,0.150307859 5.20101413,0.352408548 L6.13654473,6.85693589 L6.98587468,6.85693589 C7.21296632,6.85693589 7.39695762,7.0409272 7.39695762,7.26801883 L7.39695762,17.3103948 C7.39695762,17.5371242 7.21296632,17.7211155 6.98587468,17.7211155 L6.01955813,17.7211155 C6.85874683,18.3998551 7.39695762,19.4367983 7.39695762,20.5976096" id="path62-copy" transform="translate(3.698479, 12.148135) scale(-1, 1) rotate(-180.000000) translate(-3.698479, -12.148135) "></path>
                                <path d="M16.7388627,7.67873959 L10.2093444,7.67873959 L11.7185802,16.8993118 L17.5950742,16.8993118 L19.10431,7.67873959 L16.7388627,7.67873959 Z M15.3965954,0.821803694 L13.917059,0.821803694 L13.0488953,6.85693589 L16.2647591,6.85693589 L15.3965954,0.821803694 Z M11.7801521,20.5976096 C11.7801521,22.1839913 13.0706266,23.4744658 14.6570083,23.4744658 C16.2430279,23.4744658 17.5335024,22.1839913 17.5335024,20.5976096 C17.5335024,19.01159 16.2430279,17.7211155 14.6570083,17.7211155 C13.0706266,17.7211155 11.7801521,19.01159 11.7801521,20.5976096 Z M19.98841,7.36472293 L18.3498732,17.3766751 C18.3172763,17.5755161 18.1455994,17.7211155 17.9442231,17.7211155 L16.9779066,17.7211155 C17.8170953,18.3998551 18.355306,19.4367983 18.355306,20.5976096 C18.355306,22.637088 16.6961246,24.2962695 14.6570083,24.2962695 C12.6175299,24.2962695 10.9583484,22.637088 10.9583484,20.5976096 C10.9583484,19.4367983 11.4965592,18.3998551 12.3357479,17.7211155 L11.3694314,17.7211155 C11.1680551,17.7211155 10.9963781,17.5755161 10.9637812,17.3766751 L9.32017385,7.33429917 C9.30061572,7.21550163 9.33429917,7.09380659 9.41253169,7.00181094 C9.49040203,6.91017747 9.6052155,6.85693589 9.72582398,6.85693589 L12.2187613,6.85693589 L13.1542919,0.352408548 C13.1832669,0.150307859 13.3567548,8.04218055e-15 13.5610286,8.04218055e-15 L15.7526259,8.04218055e-15 C15.9568997,8.04218055e-15 16.1303875,0.150307859 16.1593625,0.352408548 L17.0948932,6.85693589 L19.5881927,6.85693589 C19.5881927,6.85693589 19.5889171,6.85693589 19.5892792,6.85693589 C19.8160087,6.85693589 20,7.0409272 20,7.26801883 C20,7.30134009 19.9960159,7.33393698 19.98841,7.36472293" id="path64-copy" transform="translate(14.657365, 12.148135) scale(-1, 1) rotate(-180.000000) translate(-14.657365, -12.148135) "></path>
                            </g>
                        </g>
                    </g>
                </g>
            </g>
        </g>
    </g>
</svg>