<?xml version="1.0" encoding="UTF-8"?>
<svg width="25px" height="21px" viewBox="0 0 25 21" version="1.1" xmlns="http://www.w3.org/2000/svg" xmlns:xlink="http://www.w3.org/1999/xlink">
    <title>TV</title>
    <g id="Page-1" stroke="none" stroke-width="1" fill="none" fill-rule="evenodd">
        <g id="Desktop" transform="translate(-78.000000, -720.000000)" fill="#161616" fill-rule="nonzero">
            <g id="Facilities" transform="translate(73.675200, 620.000000)">
                <g id="Standard-room" transform="translate(4.324800, 0.000000)">
                    <g id="Icons" transform="translate(0.225280, 68.000000)">
                        <g id="TV" transform="translate(0.311360, 32.000000)">
                            <g transform="translate(0.000000, 0.412800)">
                                <path d="M23.0745595,4.23251844 L0.925440468,4.23251844 L0.925440468,18.977748 L23.0745595,18.977748 L23.0745595,4.23251844 Z M14.6651222,0.925440468 L9.33487777,0.925440468 L10.0013412,3.30707797 L13.9986588,3.30707797 L14.6651222,0.925440468 Z M23.5372798,19.9031884 L0.462720234,19.9031884 C0.207401085,19.9031884 0,19.6961531 0,19.4404682 L0,3.76979821 C0,3.51411327 0.207401085,3.30707797 0.462720234,3.30707797 L9.04041944,3.30707797 L8.37395598,0.925440468 L6.96128757,0.925440468 C6.70596842,0.925440468 6.49856734,0.71840517 6.49856734,0.462720234 C6.49856734,0.207035298 6.70596842,-8.12209736e-15 6.96128757,-8.12209736e-15 L8.72511126,-8.12209736e-15 L15.2752545,-8.12209736e-15 L15.2763519,-8.12209736e-15 L17.0387124,-8.12209736e-15 C17.2940316,-8.12209736e-15 17.5014327,0.207035298 17.5014327,0.462720234 C17.5014327,0.71840517 17.2940316,0.925440468 17.0387124,0.925440468 L15.626044,0.925440468 L14.9595806,3.30707797 L23.5372798,3.30707797 C23.7929647,3.30707797 24,3.51411327 24,3.76979821 L24,19.4404682 C24,19.6961531 23.7929647,19.9031884 23.5372798,19.9031884" id="path166-copy" transform="translate(12.000000, 9.951594) scale(-1, 1) rotate(-180.000000) translate(-12.000000, -9.951594) "></path>
                                <path d="M23.5372798,13.5030177 L0.829238554,13.5030177 C0.573919405,13.5030177 0.36651832,13.710053 0.36651832,13.965738 C0.36651832,14.2210571 0.573919405,14.4284582 0.829238554,14.4284582 L23.5372798,14.4284582 C23.7929647,14.4284582 24,14.2210571 24,13.965738 C24,13.710053 23.7929647,13.5030177 23.5372798,13.5030177" id="path168-copy" transform="translate(12.183259, 13.965738) scale(-1, 1) rotate(-180.000000) translate(-12.183259, -13.965738) "></path>
                            </g>
                        </g>
                    </g>
                </g>
            </g>
        </g>
    </g>
</svg>