<?xml version="1.0" encoding="UTF-8"?>
<svg width="25px" height="25px" viewBox="0 0 25 25" version="1.1" xmlns="http://www.w3.org/2000/svg" xmlns:xlink="http://www.w3.org/1999/xlink">
    <title>Group 3</title>
    <g id="Page-1" stroke="none" stroke-width="1" fill="none" fill-rule="evenodd">
        <g id="Desktop" transform="translate(-273.000000, -1012.000000)" fill="#000000" fill-rule="nonzero">
            <g id="Facilities" transform="translate(73.675200, 620.000000)">
                <g id="Superior" transform="translate(0.324800, 329.000000)">
                    <g id="Icons" transform="translate(0.478924, 63.204480)">
                        <g id="Group-3" transform="translate(199.245108, 0.000000)">
                            <path d="M1.00427188,1.00423367 L1.00427188,18.0486927 L22.9957663,18.0486927 L22.9957663,1.00423367 L1.00427188,1.00423367 Z M16.3012574,22.9957281 L16.3012574,21.38926 C16.3012574,21.1118347 16.5259489,20.8871431 16.8033742,20.8871431 C17.0804173,20.8871431 17.305491,21.1118347 17.305491,21.38926 L17.305491,22.9957281 L19.455728,22.9957281 L19.455728,21.38926 C19.455728,21.1118347 19.6808017,20.8871431 19.9578449,20.8871431 C20.2352701,20.8871431 20.4599617,21.1118347 20.4599617,21.38926 L20.4599617,22.9957281 L22.9957663,22.9957281 L22.9957663,19.0529264 L1.00427188,19.0529264 L1.00427188,22.9957281 L16.3012574,22.9957281 Z M23.4978832,23.9999618 L0.502116833,23.9999618 C0.224806189,23.9999618 0,23.7752702 0,23.497845 L0,0.502116833 C0,0.224691551 0.224806189,3.39398276e-14 0.502116833,3.39398276e-14 L23.4978832,3.39398276e-14 C23.7753084,3.39398276e-14 24,0.224691551 24,0.502116833 L24,23.497845 C24,23.7752702 23.7753084,23.9999618 23.4978832,23.9999618" id="path28-copy" transform="translate(12.000000, 11.999981) scale(-1, 1) rotate(-180.000000) translate(-12.000000, -11.999981) "></path>
                            <path d="M12.0000191,9.77026117 C9.39734198,9.77026117 7.27996803,11.8876351 7.27996803,14.4899301 C7.27996803,17.0926072 9.39734198,19.2099812 12.0000191,19.2099812 C14.6026962,19.2099812 16.7200702,17.0926072 16.7200702,14.4899301 C16.7200702,11.8876351 14.6026962,9.77026117 12.0000191,9.77026117 Z M12.0000191,20.2142149 C8.8436378,20.2142149 6.275849,17.6463114 6.275849,14.4899301 C6.275849,11.3335488 8.8436378,8.7660275 12.0000191,8.7660275 C15.1564004,8.7660275 17.7243038,11.3335488 17.7243038,14.4899301 C17.7243038,17.6463114 15.1564004,20.2142149 12.0000191,20.2142149" id="path30-copy" transform="translate(12.000076, 14.490121) scale(-1, 1) rotate(-180.000000) translate(-12.000076, -14.490121) "></path>
                        </g>
                    </g>
                </g>
            </g>
        </g>
    </g>
</svg>